<?xml version="1.0" standalone="no"?>
<!DOCTYPE svg PUBLIC "-//W3C//DTD SVG 1.1//EN" "http://www.w3.org/Graphics/SVG/1.1/DTD/svg11.dtd" >
<!--
2013-9-30: Created.
-->
<svg>
<metadata>
Created by iconfont
</metadata>
<defs>

<font id="iconfont" horiz-adv-x="1024" >
  <font-face
    font-family="iconfont"
    font-weight="500"
    font-stretch="normal"
    units-per-em="1024"
    ascent="896"
    descent="-128"
  />
    <missing-glyph />
    
    <glyph glyph-name="tag" unicode="&#59429;" d="M346.19 624q0 28.38-20.1 48.48t-48.48 20.1-48.48-20.1-20.1-48.48 20.1-48.48 48.48-20.1 48.48 20.1 20.1 48.48zM917.81 315.41999999999996q0-28.38-19.83-48.21l-263.04-263.58q-20.88-19.83-48.75-19.83-28.38 0-48.21 19.83l-383.04 383.58q-20.37 19.83-34.56 54.12t-14.19 62.67l0 222.87q0 27.87 20.37 48.21t48.21 20.37l222.87 0q28.38 0 62.67-14.19t54.63-34.56l383.04-382.5q19.83-20.88 19.83-48.75z"  horiz-adv-x="1024" />

    
    <glyph glyph-name="download" unicode="&#58921;" d="M835.82720747 706.28609067c87.0731104-86.6878304 132.15078187-196.492416 135.61829546-329.4137568-3.4675136-126.75687253-48.54518507-232.7086656-135.61829546-318.62593814-86.6878304-85.91727253-196.492416-130.60966507-329.4137568-134.0771776-126.75687253 3.4675136-232.7086656 48.15990613-318.62593814 134.0771776-85.91727253 85.91727253-130.60966507 191.8690656-134.0771776 318.62593814 3.4675136 132.5360608 48.15990613 242.7259264 134.0771776 329.4137568 85.91727253 87.0731104 191.8690656 132.15078187 318.62593814 135.61829546C639.33479147 838.43687253 749.13937707 793.3592 835.82720747 706.28609067zM676.70687787 331.7946624c-4.23807147 8.86142293-14.25533227 13.48477333-30.82234027 13.48477333l-95.54925333 0L550.33528533 631.5419168000001c0 5.39390933-1.5411168 10.0172608-5.0086304 13.87005333-3.4675136 3.85279253-7.70558507 5.77918827-13.48477333 5.77918827l-38.91320427 0c-4.62335147 0-9.24670187-1.92639573-12.71421546-5.77918827-3.85279253-3.85279253-5.77918827-8.47614293-5.77918827-13.87005333l0-286.26248107-95.54925333 0c-16.567008 0-26.58426773-4.62335147-30.82234027-13.48477333-4.23807147-8.86142293-1.5411168-19.6492416 8.090864-31.97817707l120.9776832-157.96449173c10.40253973-12.32893547 21.96091733-18.49340373 35.06041173-18.49340373s24.657872 6.16446827 35.06041174 18.49340373l120.9776832 157.96449173C678.24799573 312.1454208 680.9449504 322.93323947 676.70687787 331.7946624z"  horiz-adv-x="1024" />

    
    <glyph glyph-name="arrow-down-2" unicode="&#58940;" d="M814.81066895 523.04571533c0 6.32580757-2.41321563 12.65238762-7.23964692 17.47959137-9.65363503 9.65286255-25.30554771 9.65286255-34.95918274-1e-8L512 279.91269493000004 251.38816071 540.5253067c-9.65363503 9.65286255-25.30477524 9.65286255-34.95841027 0-9.65363503-9.6544075-9.65363503-25.30477524 0-34.95918273l278.09143066-278.09143066c9.65363503-9.65286255 25.30477524-9.65286255 34.95841027 0l278.09143067 278.09143066C812.39745331 510.39332771 814.81066895 516.7199077600001 814.81066895 523.04571533z"  horiz-adv-x="1024" />

    
    <glyph glyph-name="sousuo" unicode="&#58902;" d="M888.5 42.1l-198.2 195c51.9 56.4 83.8 131 83.8 213 0 175.5-144.6 317.8-323 317.8s-323-142.3-323-317.8 144.6-317.8 323-317.8c77.1 0 147.8 26.7 203.3 71l199-195.8c9.7-9.5 25.4-9.5 35.1 0 9.7 9.6 9.7 25 0 34.6z"  horiz-adv-x="1024" />

    
    <glyph glyph-name="xiaoxi1" unicode="&#58905;" d="M509.9375 771.9375c-206.4375 0-373.78125-146.4375-373.78125-327.09375 0-103.21875 54.84375-195.1875 140.15625-255.09375v-165.46875l163.78125 99.375c22.6875-3.75 45.9375-5.90625 69.84375-5.90625 206.4375 0 373.78125 146.4375 373.78125 327.09375 0.09375 180.65625-167.25 327.09375-373.78125 327.09375z"  horiz-adv-x="1024" />

    
    <glyph glyph-name="copyright-circle-fil" unicode="&#59462;" d="M512 804C280.0625 804 92 615.9375 92 384s188.0625-420 420-420 420 188.0625 420 420S743.9375 804 512 804z m5.0625-628.125c-103.125 0-162.5625 68.625-162.5625 182.71875v49.03125C354.5 522.5625 413.9375 592.125 516.96875 592.125c88.40625 0 152.53125-56.90625 152.53125-138.1875 0-2.4375-1.96875-4.40625-4.40625-4.40625h-53.15625c-3.9375 0-7.125 3-7.5 6.9375-3.75 46.40625-37.5 78.1875-87.1875 78.1875-61.21875 0-95.71875-45.46875-95.71875-127.03125v-49.3125c0-80.34375 34.59375-125.25 95.71875-125.25 49.5 0 83.15625 29.71875 87.1875 72.9375 0.375 3.84375 3.5625 6.84375 7.5 6.84375h53.25c2.4375 0 4.40625-1.96875 4.40625-4.40625 0-77.4375-64.40625-132.5625-152.53125-132.5625z"  horiz-adv-x="1024" />

    
    <glyph glyph-name="share_down" unicode="&#59007;" d="M649.15625001 464.4375v-82.125c0-30.375 18.1875-37.875 40.03124999-17.4375l202.21875001 190.03125001c6 6.65625001 6 16.78125001 0.09374999 23.43749998L690.3125 757.21875001c-22.6875 20.0625-41.15625001 11.90625001-41.15625001-18.65625001v-82.3125C367.625 661.21875001 237.78124999 508.59375001 237.78124999 354.84374999c0 0 41.90625001 109.59375001 411.37500002 109.59375001zM183.03124999 0.1875H841.0625c30.28125001-0.09375001 54.84375001 24.375 54.9375 54.65625001V274.6875c-0.09375001 19.59375001-10.6875 37.6875-27.75 47.34375001-17.0625 9.65625001-37.96875001 9.5625-54.84375001-0.375s-27.28125001-28.03125001-27.1875-47.71875001v-137.15625001c-0.1875-7.3125-3.1875-14.15625001-8.4375-19.21874999s-12.28125001-7.78125001-19.59374999-7.6875H265.71874999c-7.3125-0.1875-14.34375001 2.53125001-19.59374999 7.59375001-5.25 5.0625-8.25 12-8.34374999 19.3125V274.03124999c0 30.65625001-24.75 55.40625001-54.75 55.40625001-30.28125001 0.09375001-54.84375001-24.375-54.9375-54.65624999V54.9375c0.09375001-30.28125001 24.65625001-54.75 54.9375-54.75z"  horiz-adv-x="1024" />

    
    <glyph glyph-name="qq" unicode="&#59206;" d="M847.14285687 275.57142844c-17.14285687 55.07142844-36.85714313 101.35714313-67.17857156 177.10714312C784.67857156 651.6428568700001 701.96428531 812.57142844 511.46428531 812.57142844 318.82142844 812.57142844 237.92857156 648.42857156 243.07142844 452.67857156c-30.42857156-75.85714313-50.03571469-121.82142844-67.17857156-177.10714312-36.42857156-117.32142844-24.64285687-165.85714312-15.64285688-166.92857156 19.28571469-2.35714312 75.10714313 88.28571469 75.10714313 88.28571468 0-52.5 27-120.96428531 85.5-170.35714312-28.28571469-8.67857156-91.82142844-32.03571469-76.71428625-57.64285688 12.21428531-20.67857156 210.21428531-13.17857156 267.32142843-6.75 57.10714313-6.42857156 255.10714312-13.92857156 267.32142938 6.75 15.10714313 25.5-48.53571469 48.96428531-76.71428625 57.64285688 58.5 49.5 85.5 117.96428531 85.5 170.35714312 0 0 55.82142844-90.64285688 75.10714312-88.28571469 9.10714313 1.17857156 20.89285687 49.71428531-15.53571468 166.92857157z"  horiz-adv-x="1024" />

    
    <glyph glyph-name="wechat" unicode="&#59235;" d="M702.82142844 528.2142853099999c6.32142844 0 12.64285687-0.21428531 18.85714312-0.53571375-26.14285687 137.89285688-169.60714312 243.32142844-342.75 243.32142844C187.35714312 771 32 641.78571469 32 482.35714313c0-86.89285688 46.71428531-165.21428531 119.89285687-218.14285782a23.03571469 23.03571469 0 0 0 9.75-18.85714218c0-2.57142844-0.53571469-4.92857156-1.17857156-7.39285782-5.89285687-21.75-15.21428531-56.57142844-15.64285687-58.17857062-0.75-2.78571469-1.82142844-5.57142844-1.82142844-8.46428625 0-6.32142844 5.14285687-11.57142844 11.57142844-11.57142844 2.46428531 0 4.5 0.96428531 6.64285687 2.14285688l75.96428625 43.82142843c5.67857156 3.32142844 11.78571469 5.35714313 18.42857156 5.35714313 3.42857156 0 6.85714313-0.53571469 10.17857157-1.5 35.46428531-10.17857156 73.71428531-15.85714313 113.25-15.85714313 6.42857156 0 12.75 0.10714313 19.07142843 0.42857157-7.60714313 22.5-11.67857156 46.17857156-11.67857156 70.71428625 0 145.5 141.64285688 263.35714312 316.39285688 263.35714218z m-208.17857156 92.67857156c25.5 0 46.28571469-20.67857156 46.28571468-46.17857156s-20.67857156-46.17857156-46.28571469-46.17857062c-25.5 0-46.28571469 20.67857156-46.28571375 46.17857062s20.78571469 46.17857156 46.28571375 46.17857157z m-231.32142844-92.35714218c-25.5 0-46.28571469 20.67857156-46.28571375 46.17857062s20.67857156 46.17857156 46.28571375 46.17857156 46.28571469-20.67857156 46.28571469-46.17857156-20.78571469-46.17857156-46.28571469-46.17857062z m628.71428625-445.28571469c60.96428531 44.14285687 99.85714312 109.28571469 99.85714219 181.82142844 0 132.85714312-129.42857156 240.53571469-289.17857157 240.53571469-159.64285688 0-289.17857156-107.67857156-289.17857062-240.53571469S542.96428531 24.535714689999963 702.71428531 24.535714689999963c33 0 64.92857156 4.71428531 94.39285781 13.17857062 2.78571469 0.85714313 5.57142844 1.28571469 8.46428532 1.28571469 5.57142844 0 10.60714312-1.71428531 15.32142844-4.39285687l63.32142843-36.42857157c1.82142844-1.07142844 3.53571469-1.82142844 5.57142938-1.82142843a9.64285687 9.64285687 0 0 1 6.85714219 2.78571375 9.64285687 9.64285687 0 0 1 2.78571468 6.85714312c0 2.35714312-0.96428531 4.71428531-1.5 7.07142844-0.32142844 1.28571469-8.14285688 30.32142844-13.07142843 48.53571469-0.53571469 2.03571469-0.96428531 4.07142844-0.96428625 6.10714218 0.10714313 6.32142844 3.32142844 12 8.14285781 15.53571469zM606.5 303.42857156c-21.32142844 0-38.57142844 17.25-38.57142844 38.46428531 0 21.21428531 17.25 38.46428531 38.57142844 38.46428625s38.57142844-17.25 38.57142844-38.46428625c0-21.21428531-17.35714313-38.46428531-38.57142844-38.46428531z m192.75 0c-21.32142844 0-38.57142844 17.25-38.57142844 38.46428531 0 21.21428531 17.25 38.46428531 38.57142844 38.46428625s38.57142844-17.25 38.57142844-38.46428625a38.65714312 38.65714312 0 0 0-38.57142844-38.46428531z"  horiz-adv-x="1024" />

    
    <glyph glyph-name="weibo" unicode="&#59236;" d="M453.39285687 350.78571468999996c-72.96428531 18.96428531-155.35714312-17.35714313-187.07142843-81.64285781-32.25-65.57142844-1.07142844-138.32142844 72.64285687-162.10714219 76.28571469-24.64285687 166.28571469 13.07142844 197.57142938 83.89285687 30.75 69.21428531-7.71428531 140.35714312-83.14285781 159.85714313z m-55.71428531-167.35714313c-14.78571469-23.67857156-46.60714313-33.96428531-70.5-23.14285687-23.57142844 10.71428531-30.53571469 38.25-15.64285687 61.28571375 14.67857156 22.92857156 45.32142844 33.21428531 69 23.25 24-10.17857156 31.71428531-37.5 17.14285687-61.39285688z m48.75 62.67857156c-5.35714313-9.21428531-17.25-13.60714313-26.46428625-9.75-9.10714313 3.75-12 14.03571469-6.85714218 23.03571375 5.35714313 9 16.71428531 13.28571469 25.82142843 9.75 9.32142844-3.42857156 12.64285687-13.82142844 7.5-23.03571375z m358.39285688 211.28571376c16.07142844-5.14285687 33.21428531 3.64285688 38.46428625 19.60714312 12.64285687 39.21428531 4.71428531 84-24.85714313 116.78571469a119.34642844 119.34642844 0 0 1-113.57142844 36.75 30.48214313 30.48214313 0 0 1-23.46428625-36.21428625 30.41785688 30.41785688 0 0 1 36.21428625-23.35714313c19.71428531 4.17857156 41.03571469-1.92857156 55.60714219-17.89285687a58.07142844 58.07142844 0 0 0 12.10714313-57.10714313 30.48214313 30.48214313 0 0 1 19.5-38.57142843z m106.92857156 220.71428625c-60.75 67.39285687-150.42857156 93.10714312-233.25 75.53571375a35.33571469 35.33571469 0 0 1-27.21428531-42.10714219 35.48571469 35.48571469 0 0 1 42.10714218-27.32142938c58.92857156 12.53571469 122.57142844-5.78571469 165.85714313-53.67857062 43.17857156-47.89285687 54.85714313-113.25 36.42857156-170.46428625-6-18.64285687 4.17857156-38.57142844 22.82142844-44.67857156 18.64285687-6 38.57142844 4.17857156 44.57142844 22.71428625v0.10714218c25.82142844 80.78571469 9.53571469 172.60714312-51.32142844 239.89285782zM744.5 397.92857156c-13.07142844 3.85714312-21.96428531 6.53571469-15.10714313 23.67857156 14.78571469 37.17857156 16.28571469 69.32142844 0.32142844 92.14285688-30 42.96428531-112.28571469 40.60714313-206.57142844 1.17857156 0 0-29.57142844-12.96428531-22.07142843 10.5 14.46428531 46.60714313 12.32142844 85.60714312-10.28571375 108.21428531-51.10714313 51.21428531-187.07142844-1.92857156-303.75-118.49999999C99.82142844 427.82142844 49.14285688 335.25 49.14285688 255.21428531000004 49.14285688 102.10714312000005 245.42857156 9 437.53571469 9c251.78571469 0 419.25 146.25 419.25 262.5 0 70.17857156-59.14285687 109.92857156-112.28571469 126.42857156zM438.07142844 63.857143130000054c-153.21428531-15.10714313-285.53571469 54.10714313-295.5 154.82142843-9.96428531 100.60714312 106.28571469 194.46428531 259.5 209.57142844 153.21428531 15.21428531 285.53571469-54.10714313 295.5-154.71428531C707.42857156 172.92857156000002 591.28571469 79.07142843999998 438.07142844 63.857143130000054z"  horiz-adv-x="1024" />

    
    <glyph glyph-name="Control" unicode="&#58895;" d="M512 618.666667l-356.522667-309.973334a42.666667 42.666667 0 0 0-54.954666 65.28l369.066666 332.373334A64 64 0 0 0 554.666667 704l370.56-331.605333a42.666667 42.666667 0 0 0-58.453334-62.122667L512 618.666667z"  horiz-adv-x="1024" />

    
    <glyph glyph-name="Info-circle" unicode="&#58897;" d="M512 384m-426.666667 0a426.666667 426.666667 0 1 1 853.333334 0 426.666667 426.666667 0 1 1-853.333334 0ZM469.333333 469.333333m42.666667 0l0 0q42.666667 0 42.666667-42.666666l0-213.333334q0-42.666667-42.666667-42.666666l0 0q-42.666667 0-42.666667 42.666666l0 213.333334q0 42.666667 42.666667 42.666666ZM469.333333 597.333333m42.666667 0l0 0q42.666667 0 42.666667-42.666666l0 0q0-42.666667-42.666667-42.666667l0 0q-42.666667 0-42.666667 42.666667l0 0q0 42.666667 42.666667 42.666666Z"  horiz-adv-x="1024" />

    
    <glyph glyph-name="Left-circle" unicode="&#58898;" d="M512 384m-426.666667 0a426.666667 426.666667 0 1 1 853.333334 0 426.666667 426.666667 0 1 1-853.333334 0ZM626.261333 577.578667a36.565333 36.565333 0 0 1-51.754666 51.712l-219.434667-219.434667a36.565333 36.565333 0 0 1-1.066667-50.56l201.130667-219.434667a36.565333 36.565333 0 1 1 53.930667 49.408l-177.493334 193.621334 194.688 194.688z"  horiz-adv-x="1024" />

    
    <glyph glyph-name="Stop" unicode="&#58904;" d="M512-42.666667C276.352-42.666667 85.333333 148.352 85.333333 384S276.352 810.666667 512 810.666667s426.666667-191.018667 426.666667-426.666667-191.018667-426.666667-426.666667-426.666667z m0 85.333334a341.333333 341.333333 0 1 1 0 682.666666 341.333333 341.333333 0 0 1 0-682.666666z m301.696 643.029333a42.666667 42.666667 0 0 0 0-60.330667L270.634667 82.304a42.666667 42.666667 0 0 0-60.330667 60.330667L753.365333 685.696a42.666667 42.666667 0 0 0 60.330667 0z"  horiz-adv-x="1024" />

    
    <glyph glyph-name="Time-schedule" unicode="&#58903;" d="M467.754667 576h3.626666a21.333333 21.333333 0 0 0 21.205334-19.2L512 362.666667l138.581333-79.189334a21.333333 21.333333 0 0 0 10.752-18.517333V256a16.298667 16.298667 0 0 0-20.565333-15.701333l-197.12 53.76a21.333333 21.333333 0 0 0-15.616 22.186666l18.432 240.042667a21.333333 21.333333 0 0 0 21.290667 19.712zM315.306667 775.04A446.549333 446.549333 0 0 0 490.666667 810.666667C738.090667 810.666667 938.666667 610.090667 938.666667 362.666667S738.090667-85.333333 490.666667-85.333333 42.666667 115.242667 42.666667 362.666667c0 42.026667 5.802667 82.688 16.64 121.258666l82.133333-23.04A363.050667 363.050667 0 0 1 128 362.666667 362.666667 362.666667 0 1 1 490.666667 725.333333c-40.576 0-80.128-6.656-117.376-19.370666l50.773333-60.586667a21.333333 21.333333 0 0 0-15.104-34.986667l-207.658667-11.776a21.333333 21.333333 0 0 0-21.973333 26.24l48.170667 201.856a21.333333 21.333333 0 0 0 37.077333 8.789334L315.306667 775.04z"  horiz-adv-x="1024" />

    
    <glyph glyph-name="Warning--circle" unicode="&#58906;" d="M512 384m-426.666667 0a426.666667 426.666667 0 1 1 853.333334 0 426.666667 426.666667 0 1 1-853.333334 0ZM469.333333 597.333333m42.666667 0l0 0q42.666667 0 42.666667-42.666666l0-256q0-42.666667-42.666667-42.666667l0 0q-42.666667 0-42.666667 42.666667l0 256q0 42.666667 42.666667 42.666666ZM469.333333 213.333333m42.666667 0l0 0q42.666667 0 42.666667-42.666666l0 0q0-42.666667-42.666667-42.666667l0 0q-42.666667 0-42.666667 42.666667l0 0q0 42.666667 42.666667 42.666666Z"  horiz-adv-x="1024" />

    
    <glyph glyph-name="Right-circle" unicode="&#58907;" d="M512 384m-426.666667 0a426.666667 426.666667 0 1 1 853.333334 0 426.666667 426.666667 0 1 1-853.333334 0ZM397.738667 577.578667a36.565333 36.565333 0 0 0 51.754666 51.712l219.434667-219.434667a36.565333 36.565333 0 0 0 1.066667-50.56l-201.130667-219.434667a36.565333 36.565333 0 1 0-53.930667 49.408l177.493334 193.621334-194.688 194.688z"  horiz-adv-x="1024" />

    
    <glyph glyph-name="Call" unicode="&#58908;" d="M512-42.666667C276.352-42.666667 85.333333 148.352 85.333333 384S276.352 810.666667 512 810.666667s426.666667-191.018667 426.666667-426.666667-191.018667-426.666667-426.666667-426.666667z m-16.469333 374.912a62.378667 62.378667 0 0 0-72.021334-11.690666 62.378667 62.378667 0 0 1-72.021333-11.690667l-64.469333-64.426667a21.333333 21.333333 0 0 1 8.32-35.370666l57.770666-19.242667c55.466667-18.474667 116.608-4.053333 157.952 37.290667l170.666667 170.666666c37.973333 37.973333 47.36 96 23.338667 144l-26.965334 54.016a21.333333 21.333333 0 0 1-34.133333 5.546667L576 533.333333a62.378667 62.378667 0 0 1-11.690667-72.021333 62.378667 62.378667 0 0 0-11.690666-72.021333l-57.088-57.088z"  horiz-adv-x="1024" />

    
    <glyph glyph-name="Chat" unicode="&#58911;" d="M618.069333 128l-72.064-130.432a42.666667 42.666667 0 0 0-72.874666-2.944L384.725333 128H213.333333a128 128 0 0 0-128 128V640a128 128 0 0 0 128 128h597.333334a128 128 0 0 0 128-128v-384a128 128 0 0 0-128-128h-192.597334zM256 597.333333h384a42.666667 42.666667 0 0 0 0-85.333333H256a42.666667 42.666667 0 1 0 0 85.333333z m0-170.666666h213.333333a42.666667 42.666667 0 0 0 0-85.333334H256a42.666667 42.666667 0 0 0 0 85.333334z"  horiz-adv-x="1024" />

    
    <glyph glyph-name="Chat1" unicode="&#58912;" d="M938.666667 255.573333l1.066666 0.426667v-195.669333a42.666667 42.666667 0 0 0-72.832-30.165334L769.066667 128H256a128 128 0 0 0-128 128V640a128 128 0 0 0 128 128h554.666667a128 128 0 0 0 128-128v-384.426667zM320 384a64 64 0 1 0 0 128 64 64 0 0 0 0-128z m213.333333 0a64 64 0 1 0 0 128 64 64 0 0 0 0-128z m213.333334 0a64 64 0 1 0 0 128 64 64 0 0 0 0-128z"  horiz-adv-x="1024" />

    
    <glyph glyph-name="Contact" unicode="&#58913;" d="M512 384m-426.666667 0a426.666667 426.666667 0 1 1 853.333334 0 426.666667 426.666667 0 1 1-853.333334 0ZM512 426.666667a85.333333 85.333333 0 1 0 0 170.666666 85.333333 85.333333 0 0 0 0-170.666666z m-213.333333-234.666667c9.216 127.274667 101.034667 192 212.906666 192 113.493333 0 206.762667-61.141333 213.717334-192 0.256-5.205333 0-21.333333-17.834667-21.333333H315.904c-5.973333 0-17.706667 14.421333-17.237333 21.333333z"  horiz-adv-x="1024" />

    
    <glyph glyph-name="Clipboard-check" unicode="&#58914;" d="M341.333333 768v-21.333333A64 64 0 0 1 405.333333 682.666667h213.333334A64 64 0 0 1 682.666667 746.666667V768h85.333333a85.333333 85.333333 0 0 0 85.333333-85.333333v-682.666667a85.333333 85.333333 0 0 0-85.333333-85.333333H256a85.333333 85.333333 0 0 0-85.333333 85.333333V682.666667a85.333333 85.333333 0 0 0 85.333333 85.333333h85.333333zM464 224a40.362667 40.362667 0 0 0-28.586667 12.245333l-81.834666 81.792a39.509333 39.509333 0 0 0 0 57.258667c16.384 16.341333 42.965333 16.341333 57.258666 0l53.162667-53.162667 134.912 134.912a39.509333 39.509333 0 0 0 57.258667 0 39.509333 39.509333 0 0 0 0-57.216l-163.541334-163.584a40.362667 40.362667 0 0 0-28.629333-12.245333zM469.333333 810.666667a42.666667 42.666667 0 0 0 85.333334 0h64a21.333333 21.333333 0 0 0 21.333333-21.333334v-42.666666a21.333333 21.333333 0 0 0-21.333333-21.333334h-213.333334a21.333333 21.333333 0 0 0-21.333333 21.333334v42.666666a21.333333 21.333333 0 0 0 21.333333 21.333334H469.333333z"  horiz-adv-x="1024" />

    
    <glyph glyph-name="Clipboard-list" unicode="&#58915;" d="M341.333333 768v-21.333333A64 64 0 0 1 405.333333 682.666667h213.333334A64 64 0 0 1 682.666667 746.666667V768h85.333333a85.333333 85.333333 0 0 0 85.333333-85.333333v-682.666667a85.333333 85.333333 0 0 0-85.333333-85.333333H256a85.333333 85.333333 0 0 0-85.333333 85.333333V682.666667a85.333333 85.333333 0 0 0 85.333333 85.333333h85.333333zM469.333333 810.666667a42.666667 42.666667 0 0 0 85.333334 0h64a21.333333 21.333333 0 0 0 21.333333-21.333334v-42.666666a21.333333 21.333333 0 0 0-21.333333-21.333334h-213.333334a21.333333 21.333333 0 0 0-21.333333 21.333334v42.666666a21.333333 21.333333 0 0 0 21.333333 21.333334H469.333333zM426.666667 512m42.666666 0l213.333334 0q42.666667 0 42.666666-42.666667l0 0q0-42.666667-42.666666-42.666666l-213.333334 0q-42.666667 0-42.666666 42.666666l0 0q0 42.666667 42.666666 42.666667ZM298.666667 512m42.666666 0l0 0q42.666667 0 42.666667-42.666667l0 0q0-42.666667-42.666667-42.666666l0 0q-42.666667 0-42.666666 42.666666l0 0q0 42.666667 42.666666 42.666667ZM298.666667 341.333333m42.666666 0l0 0q42.666667 0 42.666667-42.666666l0 0q0-42.666667-42.666667-42.666667l0 0q-42.666667 0-42.666666 42.666667l0 0q0 42.666667 42.666666 42.666666ZM426.666667 341.333333m42.666666 0l213.333334 0q42.666667 0 42.666666-42.666666l0 0q0-42.666667-42.666666-42.666667l-213.333334 0q-42.666667 0-42.666666 42.666667l0 0q0 42.666667 42.666666 42.666666ZM298.666667 170.666667m42.666666 0l0 0q42.666667 0 42.666667-42.666667l0 0q0-42.666667-42.666667-42.666667l0 0q-42.666667 0-42.666666 42.666667l0 0q0 42.666667 42.666666 42.666667ZM426.666667 170.666667m42.666666 0l213.333334 0q42.666667 0 42.666666-42.666667l0 0q0-42.666667-42.666666-42.666667l-213.333334 0q-42.666667 0-42.666666 42.666667l0 0q0 42.666667 42.666666 42.666667Z"  horiz-adv-x="1024" />

    
    <glyph glyph-name="Dial-numbers" unicode="&#58917;" d="M170.666667 725.333333m85.333333 0l0 0q85.333333 0 85.333333-85.333333l0 0q0-85.333333-85.333333-85.333333l0 0q-85.333333 0-85.333333 85.333333l0 0q0 85.333333 85.333333 85.333333ZM170.666667 469.333333m85.333333 0l0 0q85.333333 0 85.333333-85.333333l0 0q0-85.333333-85.333333-85.333333l0 0q-85.333333 0-85.333333 85.333333l0 0q0 85.333333 85.333333 85.333333ZM426.666667 725.333333m85.333333 0l0 0q85.333333 0 85.333333-85.333333l0 0q0-85.333333-85.333333-85.333333l0 0q-85.333333 0-85.333333 85.333333l0 0q0 85.333333 85.333333 85.333333ZM426.666667 469.333333m85.333333 0l0 0q85.333333 0 85.333333-85.333333l0 0q0-85.333333-85.333333-85.333333l0 0q-85.333333 0-85.333333 85.333333l0 0q0 85.333333 85.333333 85.333333ZM682.666667 725.333333m85.333333 0l0 0q85.333333 0 85.333333-85.333333l0 0q0-85.333333-85.333333-85.333333l0 0q-85.333333 0-85.333333 85.333333l0 0q0 85.333333 85.333333 85.333333ZM682.666667 469.333333m85.333333 0l0 0q85.333333 0 85.333333-85.333333l0 0q0-85.333333-85.333333-85.333333l0 0q-85.333333 0-85.333333 85.333333l0 0q0 85.333333 85.333333 85.333333ZM170.666667 213.333333m85.333333 0l0 0q85.333333 0 85.333333-85.333333l0 0q0-85.333333-85.333333-85.333333l0 0q-85.333333 0-85.333333 85.333333l0 0q0 85.333333 85.333333 85.333333ZM426.666667 213.333333m85.333333 0l0 0q85.333333 0 85.333333-85.333333l0 0q0-85.333333-85.333333-85.333333l0 0q-85.333333 0-85.333333 85.333333l0 0q0 85.333333 85.333333 85.333333ZM682.666667 213.333333m85.333333 0l0 0q85.333333 0 85.333333-85.333333l0 0q0-85.333333-85.333333-85.333333l0 0q-85.333333 0-85.333333 85.333333l0 0q0 85.333333 85.333333 85.333333Z"  horiz-adv-x="1024" />

    
    <glyph glyph-name="Group-chat" unicode="&#58918;" d="M682.666667 229.034667V384a128 128 0 0 1-128 128H262.912V660.224A107.776 107.776 0 0 0 370.688 768h503.04a107.776 107.776 0 0 0 107.776-107.776v-323.413333l0.725333-199.68a21.333333 21.333333 0 0 0-36.437333-15.189334l-107.093333 107.093334H682.666667zM84.693333 128v213.333333a85.333333 85.333333 0 0 0 85.333334 85.333334h341.333333a85.333333 85.333333 0 0 0 85.333333-85.333334v-213.333333a85.333333 85.333333 0 0 0-85.333333-85.333333H174.976l-53.077333-50.773334a21.333333 21.333333 0 0 0-36.096 15.36v106.922667A85.930667 85.930667 0 0 0 84.693333 128zM277.333333 298.666667a21.333333 21.333333 0 1 1 0-42.666667h213.333334a21.333333 21.333333 0 1 1 0 42.666667h-213.333334z m128-85.333334a21.333333 21.333333 0 1 1 0-42.666666h85.333334a21.333333 21.333333 0 1 1 0 42.666666h-85.333334z"  horiz-adv-x="1024" />

    
    <glyph glyph-name="Forward" unicode="&#58916;" d="M554.666667 469.333333V654.08a32 32 0 0 0 53.248 23.893333l305.408-271.445333a32 32 0 0 0 1.365333-46.506667L609.28 54.613333a32 32 0 0 0-54.613333 22.613334V256c-57.472 3.456-178.261333 3.584-362.282667 0.426667A21.333333 21.333333 0 0 0 170.666667 277.674667v170.069333a21.333333 21.333333 0 0 0 21.546666 21.333333c218.88-2.133333 339.712-2.048 362.453334 0.213334z"  horiz-adv-x="1024" />

    
    <glyph glyph-name="Mail-" unicode="&#58919;" d="M493.866667-8.533333c-230.4 0-372.266667 162.133333-372.266667 368 0 243.2 193.066667 406.4 412.8 406.4 210.133333 0 366.933333-129.066667 366.933333-332.8 0-185.6-98.133333-259.2-196.266666-259.2-48 0-87.466667 22.4-104.533334 54.4-33.066667-32-83.2-52.266667-131.2-52.266667-117.333333 0-177.066667 83.2-177.066666 183.466667 0 129.066667 93.866667 233.6 231.466666 233.6 39.466667 0 71.466667-10.666667 96-28.8l4.266667 18.133333H725.333333l-50.133333-234.666667c-9.6-46.933333 1.066667-84.266667 46.933333-84.266666 56.533333 0 89.6 46.933333 89.6 171.733333 0 166.4-131.2 244.266667-278.4 244.266667-165.333333 0-317.866667-114.133333-317.866666-320 0-168.533333 107.733333-278.4 278.4-278.4 64 0 130.133333 13.866667 187.733333 43.733333L716.8 38.4c-66.133333-29.866667-153.6-46.933333-222.933333-46.933333z m-7.466667 284.8c27.733333 0 55.466667 7.466667 77.866667 29.866666l34.133333 157.866667c-19.2 20.266667-46.933333 29.866667-73.6 29.866667-70.4 0-121.6-54.4-121.6-125.866667 0-55.466667 26.666667-91.733333 83.2-91.733333z"  horiz-adv-x="1024" />

    
    <glyph glyph-name="Mail" unicode="&#58920;" d="M213.333333 640h597.333334a85.333333 85.333333 0 0 0 85.333333-85.333333v-384a85.333333 85.333333 0 0 0-85.333333-85.333334H213.333333a85.333333 85.333333 0 0 0-85.333333 85.333334V554.666667a85.333333 85.333333 0 0 0 85.333333 85.333333z m560.810667-78.506667L512 420.352 249.856 561.493333a32 32 0 1 1-30.378667-56.32l277.333334-149.333333c9.472-5.12 20.906667-5.12 30.378666 0l277.333334 149.333333a32 32 0 0 1-30.378667 56.32z"  horiz-adv-x="1024" />

    
    <glyph glyph-name="Reply" unicode="&#58923;" d="M914.986667 136.917333c0 34.986667 7.509333 173.141333-101.461334 282.709334C740.181333 493.354667 630.485333 506.154667 499.2 512V695.765333a32 32 0 0 1-53.504 23.68l-304.64-276.352a32 32 0 0 1-0.256-47.189333l304.64-282.112a32 32 0 0 1 53.76 23.466667V320c83.328-2.304 142.677333-7.594667 196.608-24.746667 77.653333-24.746667 137.685333-94.805333 180.053333-210.261333a32 32 0 0 1 30.037334-20.992h9.301333c0 21.034667-0.213333 54.357333-0.213333 72.917333z"  horiz-adv-x="1024" />

    
    <glyph glyph-name="Right" unicode="&#58924;" d="M540.032 469.333333V654.08a32 32 0 0 1-53.248 23.893333l-305.365333-271.445333a32 32 0 0 1-1.365334-46.506667l305.365334-305.408a32 32 0 0 1 54.613333 22.613334V256c57.472 3.456 178.261333 3.584 362.325333 0.426667a21.333333 21.333333 0 0 1 21.674667 21.290666v170.069334a21.333333 21.333333 0 0 1-21.546667 21.333333c-218.88-2.133333-339.712-2.048-362.453333 0.213333z"  horiz-adv-x="1024" />

    
    <glyph glyph-name="Send" unicode="&#58926;" d="M128 320L810.666667 384 128 448V735.018667a21.333333 21.333333 0 0 0 30.08 19.456l780.032-351.018667a21.333333 21.333333 0 0 0 0-38.912L158.08 13.525333A21.333333 21.333333 0 0 0 128 32.981333V320z"  horiz-adv-x="1024" />

    
    <glyph glyph-name="Thumbtack" unicode="&#58927;" d="M498.048 540.586667L640 635.733333l-37.461333 37.461334a42.666667 42.666667 0 0 0 0 60.330666l60.373333 60.373334a42.666667 42.666667 0 0 0 60.330667 0l241.365333-241.365334a42.666667 42.666667 0 0 0 0-60.330666l-60.373333-60.373334a42.666667 42.666667 0 0 0-60.330667 0L806.4 469.333333l-95.146667-141.909333c10.922667-39.466667 13.994667-81.28 8.362667-122.965333l-18.432-136.405334a42.666667 42.666667 0 0 0-72.448-24.448l-414.506667 414.506667a42.666667 42.666667 0 0 0 24.448 72.448l136.405334 18.432a306.133333 306.133333 0 0 0 122.965333-8.405333zM376.234667 296.106667l-172.373334-172.416-23.722666-114.218667 114.218666 23.68 172.373334 172.416z"  horiz-adv-x="1024" />

    
    <glyph glyph-name="Camera" unicode="&#58966;" d="M213.333333 597.333333h597.333334a85.333333 85.333333 0 0 0 85.333333-85.333333v-341.333333a85.333333 85.333333 0 0 0-85.333333-85.333334H213.333333a85.333333 85.333333 0 0 0-85.333333 85.333334V512a85.333333 85.333333 0 0 0 85.333333 85.333333z m298.666667-426.666666a170.666667 170.666667 0 1 1 0 341.333333 170.666667 170.666667 0 0 1 0-341.333333zM384 725.333333m42.666667 0l170.666666 0q42.666667 0 42.666667-42.666666l0 0q0-42.666667-42.666667-42.666667l-170.666666 0q-42.666667 0-42.666667 42.666667l0 0q0 42.666667 42.666667 42.666666ZM512 341.333333m-85.333333 0a85.333333 85.333333 0 1 1 170.666666 0 85.333333 85.333333 0 1 1-170.666666 0Z"  horiz-adv-x="1024" />

    
    <glyph glyph-name="Headphones" unicode="&#58971;" d="M810.666667 213.333333v170.666667a298.666667 298.666667 0 0 1-597.333334 0v-170.666667h597.333334z m85.333333 0H128v170.666667a384 384 0 1 0 768 0v-170.666667zM213.333333 298.666667h42.666667a85.333333 85.333333 0 0 0 85.333333-85.333334v-128a85.333333 85.333333 0 0 0-85.333333-85.333333H213.333333a85.333333 85.333333 0 0 0-85.333333 85.333333v128a85.333333 85.333333 0 0 0 85.333333 85.333334z m554.666667 0h42.666667a85.333333 85.333333 0 0 0 85.333333-85.333334v-128a85.333333 85.333333 0 0 0-85.333333-85.333333h-42.666667a85.333333 85.333333 0 0 0-85.333333 85.333333v128a85.333333 85.333333 0 0 0 85.333333 85.333334z"  horiz-adv-x="1024" />

    
    <glyph glyph-name="iPhone-X" unicode="&#58973;" d="M341.333333 789.333333c-29.44 0-53.333333-23.893333-53.333333-53.333333v-704c0-29.44 23.893333-53.333333 53.333333-53.333333h341.333334c29.44 0 53.333333 23.893333 53.333333 53.333333V736c0 29.44-23.893333 53.333333-53.333333 53.333333H341.333333zM341.333333 789.333333c-29.44 0-53.333333-23.893333-53.333333-53.333333v-704c0-29.44 23.893333-53.333333 53.333333-53.333333h341.333334c29.44 0 53.333333 23.893333 53.333333 53.333333V736c0 29.44-23.893333 53.333333-53.333333 53.333333H341.333333zM341.333333 853.333333h341.333334a117.333333 117.333333 0 0 0 117.333333-117.333333v-704A117.333333 117.333333 0 0 0 682.666667-85.333333H341.333333a117.333333 117.333333 0 0 0-117.333333 117.333333V736A117.333333 117.333333 0 0 0 341.333333 853.333333z m64-32h213.333334a21.333333 21.333333 0 0 0 21.333333-21.333333v-42.666667a21.333333 21.333333 0 0 0-21.333333-21.333333h-213.333334a21.333333 21.333333 0 0 0-21.333333 21.333333v42.666667a21.333333 21.333333 0 0 0 21.333333 21.333333z"  horiz-adv-x="1024" />

    
    <glyph glyph-name="Video-camera" unicode="&#58980;" d="M85.333333 640m85.333334 0l384 0q85.333333 0 85.333333-85.333333l0-341.333334q0-85.333333-85.333333-85.333333l-384 0q-85.333333 0-85.333334 85.333333l0 341.333334q0 85.333333 85.333334 85.333333ZM938.666667 537.002667v-306.005334a42.666667 42.666667 0 0 0-72.832-30.165333l-153.002667 153.002667a42.666667 42.666667 0 0 0 0 60.330666l153.002667 153.002667A42.666667 42.666667 0 0 0 938.666667 537.002667z"  horiz-adv-x="1024" />

    
    <glyph glyph-name="Wi-fi" unicode="&#58981;" d="M826.282667 301.653333l-89.770667-74.069333a290.133333 290.133333 0 0 1-224.597333 105.984 290.133333 290.133333 0 0 1-224-105.344l-89.6 74.282667a406.485333 406.485333 0 0 0 313.6 147.413333 406.485333 406.485333 0 0 0 314.368-148.309333z m178.346666 149.504l-89.557333-74.325333a522.325333 522.325333 0 0 1-403.157333 189.44c-157.653333 0-303.786667-70.016-402.773334-188.928L19.754667 451.754667A638.677333 638.677333 0 0 0 511.914667 682.666667c192.896 0 371.882667-85.930667 492.714666-231.509334zM645.077333 155.562667l-88.746666-75.306667-45.952-37.589333-43.904 36.309333-90.794667 72.789333a174.293333 174.293333 0 0 0 136.234667 65.450667c51.925333 0 100.266667-22.869333 133.162666-61.653333z"  horiz-adv-x="1024" />

    
    <glyph glyph-name="Book-open" unicode="&#59026;" d="M583.936 97.792C678.826667 135.68 797.141333 160 938.666667 170.666667V661.077333a21.333333 21.333333 0 0 1-21.888 21.333334C796.074667 679.338667 675.413333 650.965333 554.666667 597.333333v-479.744a21.333333 21.333333 0 0 1 29.269333-19.797333zM440.064 97.792C345.173333 135.68 226.858667 160 85.333333 170.666667V661.077333a21.333333 21.333333 0 0 0 21.888 21.333334C227.925333 679.338667 348.586667 650.965333 469.333333 597.333333v-479.744a21.333333 21.333333 0 0 0-29.269333-19.797333z"  horiz-adv-x="1024" />

    
    <glyph glyph-name="Clock" unicode="&#59030;" d="M512-42.666667a384 384 0 1 0 0 768 384 384 0 0 0 0-768zM510.421333 576h3.626667a21.333333 21.333333 0 0 0 21.205333-19.2L554.666667 362.666667l138.581333-79.189334a21.333333 21.333333 0 0 0 10.752-18.517333V256a16.298667 16.298667 0 0 0-20.565333-15.701333l-197.12 53.76a21.333333 21.333333 0 0 0-15.616 22.186666l18.432 240.042667a21.333333 21.333333 0 0 0 21.290666 19.712z"  horiz-adv-x="1024" />

    
    <glyph glyph-name="Home-heart" unicode="&#59034;" d="M168.832 536.96L489.813333 733.013333a42.666667 42.666667 0 0 0 44.458667 0l320.938667-196.096A85.333333 85.333333 0 0 0 896 464.128V85.333333a85.333333 85.333333 0 0 0-85.333333-85.333333H213.333333a85.333333 85.333333 0 0 0-85.333333 85.333333v378.794667a85.333333 85.333333 0 0 0 40.832 72.832zM588.8 384c-27.477333 0-59.605333-31.146667-76.8-51.2-17.194667 20.053333-49.322667 51.2-76.8 51.2-48.64 0-76.8-37.930667-76.8-86.186667 0-53.461333 51.2-110.08 153.6-169.813333 102.4 59.733333 153.6 115.2 153.6 166.4 0 48.256-28.16 89.6-76.8 89.6z"  horiz-adv-x="1024" />

    
    <glyph glyph-name="Picture" unicode="&#59037;" d="M85.333333 725.333333m85.333334 0l682.666666 0q85.333333 0 85.333334-85.333333l0-512q0-85.333333-85.333334-85.333333l-682.666666 0q-85.333333 0-85.333334 85.333333l0 512q0 85.333333 85.333334 85.333333ZM170.666667 42.666667l277.333333 384 277.333333-384zM469.333333 42.666667l192 256 192-256zM789.333333 533.333333m-64 0a64 64 0 1 1 128 0 64 64 0 1 1-128 0Z"  horiz-adv-x="1024" />

    
    <glyph glyph-name="Wood" unicode="&#59040;" d="M512 85.333333a298.666667 298.666667 0 0 1 298.666667 298.666667c0 109.952-99.541333 252.16-298.666667 426.666667-199.125333-174.506667-298.666667-316.714667-298.666667-426.666667a298.666667 298.666667 0 0 1 298.666667-298.666667zM469.333333 426.666667m42.666667 0l0 0q42.666667 0 42.666667-42.666667l0-384q0-42.666667-42.666667-42.666667l0 0q-42.666667 0-42.666667 42.666667l0 384q0 42.666667 42.666667 42.666667Z"  horiz-adv-x="1024" />

    
    <glyph glyph-name="Download" unicode="&#59054;" d="M85.333333 341.333333c0 21.333333 21.333333 42.666667 42.666667 42.666667s42.666667-21.333333 42.666667-42.666667v-213.333333a85.333333 85.333333 0 0 1 85.333333-85.333333h512a85.333333 85.333333 0 0 1 85.333333 85.333333v213.333333a42.666667 42.666667 0 0 0 85.333334 0v-213.333333a170.666667 170.666667 0 0 0-170.666667-170.666667H256a170.666667 170.666667 0 0 0-170.666667 170.666667v213.333333zM554.666667 256m-42.666667 0l0 0q-42.666667 0-42.666667 42.666667l0 512q0 42.666667 42.666667 42.666666l0 0q42.666667 0 42.666667-42.666666l0-512q0-42.666667-42.666667-42.666667ZM695.168 499.498667a42.666667 42.666667 0 1 0 60.330667-60.330667l-213.333334-213.333333a42.666667 42.666667 0 0 0-58.709333-1.536l-213.333333 192a42.666667 42.666667 0 1 0 57.088 63.402666l183.253333-164.906666 184.704 184.746666z"  horiz-adv-x="1024" />

    
    <glyph glyph-name="Attachment" unicode="&#59069;" d="M451.669333 384l-90.538666-90.496a42.666667 42.666667 0 0 1 60.373333-60.373333L512 323.669333l30.165333-30.165333a85.333333 85.333333 0 0 0 0-120.704L421.546667 52.138667a85.333333 85.333333 0 0 0-120.704 0L180.138667 172.8a85.333333 85.333333 0 0 0 0 120.704l120.661333 120.661333a85.333333 85.333333 0 0 0 120.704 0l30.165333-30.165333zM572.330667 384l90.538666 90.496a42.666667 42.666667 0 1 1-60.373333 60.373333L512 444.330667l-30.165333 30.165333a85.333333 85.333333 0 0 0 0 120.704l120.661333 120.661333a85.333333 85.333333 0 0 0 120.704 0l120.661333-120.661333a85.333333 85.333333 0 0 0 0-120.704l-120.661333-120.661333a85.333333 85.333333 0 0 0-120.704 0L572.330667 384z"  horiz-adv-x="1024" />

    
    <glyph glyph-name="Bookmark" unicode="&#59070;" d="M341.333333 725.333333h341.333334a85.333333 85.333333 0 0 0 85.333333-85.333333v-500.352a42.666667 42.666667 0 0 0-71.509333-31.445333l-155.648 142.72a42.666667 42.666667 0 0 1-57.685334 0l-155.648-142.72A42.666667 42.666667 0 0 0 256 139.648V640a85.333333 85.333333 0 0 0 85.333333 85.333333z"  horiz-adv-x="1024" />

    
    <glyph glyph-name="Clip" unicode="&#59071;" d="M473.002667 211.797333L412.672 272.213333l105.557333 105.6a64 64 0 0 1-90.453333 90.453334L276.906667 317.44a149.333333 149.333333 0 0 1 211.2-211.2l301.653333 301.738667a149.333333 149.333333 0 0 1 0 211.2l-15.061333 15.061333a128 128 0 0 1-181.034667 0L533.333333 694.528a213.333333 213.333333 0 0 0 301.696 0l15.104-15.061333a234.666667 234.666667 0 0 0 0-331.904l-301.696-301.653334a234.666667 234.666667 0 0 0-331.904 331.861334l150.869334 150.826666a149.333333 149.333333 0 0 0 211.2-211.2l-105.6-105.6z"  horiz-adv-x="1024" />

    
    <glyph glyph-name="Edit" unicode="&#59074;" d="M874.837333 451.242667l-407.893333-431.232a64 64 0 0 0-46.506667-20.010667H234.666667A64 64 0 0 0 170.666667 64v187.434667c0 16.64 6.485333 32.554667 18.048 44.501333l412.117333 425.386667a64 64 0 0 0 91.221333 0.682666l181.546667-181.504a64 64 0 0 0 1.237333-89.258666z"  horiz-adv-x="1024" />

    
    <glyph glyph-name="Folder" unicode="&#59079;" d="M149.333333 42.666667h725.333334a64 64 0 0 1 64 64v426.666666A64 64 0 0 1 874.666667 597.333333H469.333333L360.106667 706.56A64 64 0 0 1 314.794667 725.333333H149.333333A64 64 0 0 1 85.333333 661.333333v-554.666666A64 64 0 0 1 149.333333 42.666667z"  horiz-adv-x="1024" />

    
    <glyph glyph-name="Fire" unicode="&#59072;" d="M597.333333 597.333333c-14.208-142.208-56.874667-218.325333-128-228.266666 0 0 64 249.6-21.333333 377.6 0 0-9.045333-137.130667-100.48-301.738667C304.64 367.786667 256 315.776 256 213.333333c0-146.304 149.802667-221.866667 256.256-221.866666C618.666667-8.533333 768 42.666667 768 221.866667c0 73.685333-56.874667 198.826667-170.666667 375.466666z"  horiz-adv-x="1024" />

    
    <glyph glyph-name="Heart" unicode="&#59073;" d="M704 704c-68.693333 0-148.992-77.866667-192-128-43.008 50.133333-123.306667 128-192 128C198.442667 704 128 609.194667 128 488.533333c0-133.674667 128-275.2 384-424.533333 256 149.333333 384 288 384 416 0 120.661333-70.442667 224-192 224z"  horiz-adv-x="1024" />

    
    <glyph glyph-name="Clipboard" unicode="&#59087;" d="M341.333333 768v-21.333333A64 64 0 0 1 405.333333 682.666667h213.333334A64 64 0 0 1 682.666667 746.666667V768h85.333333a85.333333 85.333333 0 0 0 85.333333-85.333333v-682.666667a85.333333 85.333333 0 0 0-85.333333-85.333333H256a85.333333 85.333333 0 0 0-85.333333 85.333333V682.666667a85.333333 85.333333 0 0 0 85.333333 85.333333h85.333333zM469.333333 810.666667a42.666667 42.666667 0 0 0 85.333334 0h64a21.333333 21.333333 0 0 0 21.333333-21.333334v-42.666666a21.333333 21.333333 0 0 0-21.333333-21.333334h-213.333334a21.333333 21.333333 0 0 0-21.333333 21.333334v42.666666a21.333333 21.333333 0 0 0 21.333333 21.333334H469.333333zM298.666667 469.333333m42.666666 0l128 0q42.666667 0 42.666667-42.666666l0 0q0-42.666667-42.666667-42.666667l-128 0q-42.666667 0-42.666666 42.666667l0 0q0 42.666667 42.666666 42.666666ZM298.666667 298.666667m42.666666 0l298.666667 0q42.666667 0 42.666667-42.666667l0 0q0-42.666667-42.666667-42.666667l-298.666667 0q-42.666667 0-42.666666 42.666667l0 0q0 42.666667 42.666666 42.666667Z"  horiz-adv-x="1024" />

    
    <glyph glyph-name="Notifications" unicode="&#59088;" d="M725.333333 384h64a64 64 0 0 0 0-128h-554.666666a64 64 0 0 0 0 128H298.666667l23.808 214.357333a190.72 190.72 0 0 0 379.050666 0L725.333333 384zM426.666667 213.333333m85.333333 0l0 0q85.333333 0 85.333333-85.333333l0 0q0-85.333333-85.333333-85.333333l0 0q-85.333333 0-85.333333 85.333333l0 0q0 85.333333 85.333333 85.333333Z"  horiz-adv-x="1024" />

    
    <glyph glyph-name="Attachment1" unicode="&#59075;" d="M421.504 353.834667l-90.538667-90.496a42.666667 42.666667 0 1 1 60.373334-60.373334l90.453333 90.538667 30.208-30.165333a85.333333 85.333333 0 0 0 0-120.704l-120.661333-120.661334a85.333333 85.333333 0 0 0-120.704 0l-120.661334 120.661334a85.333333 85.333333 0 0 0 0 120.704L270.634667 384a85.333333 85.333333 0 0 0 120.704 0l30.165333-30.165333zM602.496 414.165333l90.538667 90.496a42.666667 42.666667 0 0 1-60.373334 60.373334l-90.453333-90.538667L512 504.661333a85.333333 85.333333 0 0 0 0 120.704l120.661333 120.661334a85.333333 85.333333 0 0 0 120.704 0l120.661334-120.661334a85.333333 85.333333 0 0 0 0-120.704L753.365333 384a85.333333 85.333333 0 0 0-120.704 0l-30.165333 30.165333zM180.138667 715.861333a42.666667 42.666667 0 0 0 60.330666 0L300.8 655.530667A42.666667 42.666667 0 1 0 240.469333 595.2L180.138667 655.530667a42.666667 42.666667 0 0 0 0 60.330666z m218.496 115.498667a42.666667 42.666667 0 0 0 42.666666-42.666667v-85.333333a42.666667 42.666667 0 1 0-85.333333 0v85.333333a42.666667 42.666667 0 0 0 42.666667 42.666667zM71.936 504.661333a42.666667 42.666667 0 0 0 42.666667 42.666667h85.333333a42.666667 42.666667 0 0 0 0-85.333333h-85.333333a42.666667 42.666667 0 0 0-42.666667 42.666666zM838.698667 57.301333a42.666667 42.666667 0 0 1 0 60.330667l-60.330667 60.373333a42.666667 42.666667 0 0 1-60.373333-60.373333l60.373333-60.330667a42.666667 42.666667 0 0 1 60.330667 0z m115.498666 218.496a42.666667 42.666667 0 0 1-42.666666 42.666667h-85.333334a42.666667 42.666667 0 0 1 0-85.333333h85.333334a42.666667 42.666667 0 0 1 42.666666 42.666666z m-326.698666-326.656a42.666667 42.666667 0 0 1 42.666666 42.666667v85.333333a42.666667 42.666667 0 0 1-85.333333 0v-85.333333a42.666667 42.666667 0 0 1 42.666667-42.666667z"  horiz-adv-x="1024" />

    
    <glyph glyph-name="Other" unicode="&#59076;" d="M213.333333 384m-85.333333 0a85.333333 85.333333 0 1 1 170.666667 0 85.333333 85.333333 0 1 1-170.666667 0ZM512 384m-85.333333 0a85.333333 85.333333 0 1 1 170.666666 0 85.333333 85.333333 0 1 1-170.666666 0ZM810.666667 384m-85.333334 0a85.333333 85.333333 0 1 1 170.666667 0 85.333333 85.333333 0 1 1-170.666667 0Z"  horiz-adv-x="1024" />

    
    <glyph glyph-name="Search" unicode="&#59077;" d="M609.834667 183.168a42.666667 42.666667 0 0 0 60.330666 60.330667l170.666667-170.666667a42.666667 42.666667 0 0 0-60.330667-60.330667l-170.666666 170.666667zM469.333333 213.333333a213.333333 213.333333 0 1 1 0 426.666667 213.333333 213.333333 0 0 1 0-426.666667z m0-85.333333a298.666667 298.666667 0 1 0 0 597.333333 298.666667 298.666667 0 0 0 0-597.333333z"  horiz-adv-x="1024" />

    
    <glyph glyph-name="Settings-" unicode="&#59078;" d="M213.333333 525.397333V682.666667h157.269334l123.733333 123.733333 123.733333-123.733333H810.666667v-192.64L916.693333 384 810.666667 277.973333V85.333333h-192.64l-123.733334-123.733333L370.645333 85.333333H213.333333v157.269334L71.936 384 213.333333 525.397333zM512 256a128 128 0 1 1 0 256 128 128 0 0 1 0-256z"  horiz-adv-x="1024" />

    
    <glyph glyph-name="Smile" unicode="&#59089;" d="M85.333333 810.666667m426.666667 0l0 0q426.666667 0 426.666667-426.666667l0 0q0-426.666667-426.666667-426.666667l0 0q-426.666667 0-426.666667 426.666667l0 0q0 426.666667 426.666667 426.666667ZM263.168 274.986667a42.666667 42.666667 0 0 0 70.997333 47.36C383.573333 248.277333 441.770667 213.333333 512 213.333333c70.229333 0 128.426667 34.986667 177.834667 109.013334a42.666667 42.666667 0 1 0 70.997333-47.36C696.405333 178.389333 612.437333 128 512 128c-100.437333 0-184.405333 50.346667-248.832 146.986667z"  horiz-adv-x="1024" />

    
    <glyph glyph-name="Settings" unicode="&#59080;" d="M85.333333 640m256 0l384 0q256 0 256-256l0 0q0-256-256-256l-384 0q-256 0-256 256l0 0q0 256 256 256ZM725.333333 384m-170.666666 0a170.666667 170.666667 0 1 1 341.333333 0 170.666667 170.666667 0 1 1-341.333333 0Z"  horiz-adv-x="1024" />

    
    <glyph glyph-name="Trash" unicode="&#59081;" d="M256 554.666667v-533.333334A64 64 0 0 1 320-42.666667h384a64 64 0 0 1 64 64V554.666667H256zM597.333333 704V725.333333a42.666667 42.666667 0 0 1-42.666666 42.666667h-85.333334a42.666667 42.666667 0 0 1-42.666666-42.666667v-21.333333H234.666667A21.333333 21.333333 0 0 1 213.333333 682.666667v-21.333334a21.333333 21.333333 0 0 1 21.333334-21.333333h554.666666a21.333333 21.333333 0 0 1 21.333334 21.333333V682.666667a21.333333 21.333333 0 0 1-21.333334 21.333333H597.333333z"  horiz-adv-x="1024" />

    
    <glyph glyph-name="Settings-1" unicode="&#59082;" d="M298.666667 768h426.666666a170.666667 170.666667 0 1 0 0-341.333333H298.666667a170.666667 170.666667 0 1 0 0 341.333333z m0-256a85.333333 85.333333 0 1 1 0 170.666667 85.333333 85.333333 0 0 1 0-170.666667zM298.666667 341.333333h426.666666a170.666667 170.666667 0 1 0 0-341.333333H298.666667a170.666667 170.666667 0 1 0 0 341.333333z m426.666666-256a85.333333 85.333333 0 1 1 0 170.666667 85.333333 85.333333 0 0 1 0-170.666667z"  horiz-adv-x="1024" />

    
    <glyph glyph-name="User" unicode="&#59083;" d="M512 426.666667a170.666667 170.666667 0 1 0 0 341.333333 170.666667 170.666667 0 0 0 0-341.333333zM128 34.133333c16.554667 203.648 181.845333 307.2 383.274667 307.2 204.288 0 372.138667-97.834667 384.64-307.2 0.512-8.32 0-34.133333-32.042667-34.133333H159.018667c-10.666667 0-31.872 23.04-30.976 34.133333z"  horiz-adv-x="1024" />

    
    <glyph glyph-name="Like" unicode="&#59084;" d="M384 469.333333v-384l49.194667-16.384a512 512 0 0 1 161.877333-26.282666h153.344a128 128 0 0 1 125.482667 102.912l32 159.829333a128 128 0 0 1-134.058667 152.789333l-153.173333-10.197333 15.530666 170.922667A58.453333 58.453333 0 0 1 576 682.666667a113.066667 113.066667 0 0 1-96.938667-54.869334L384 469.333333zM85.333333 512m42.666667 0l128 0q42.666667 0 42.666667-42.666667l0-384q0-42.666667-42.666667-42.666666l-128 0q-42.666667 0-42.666667 42.666666l0 384q0 42.666667 42.666667 42.666667Z"  horiz-adv-x="1024" />

    
    <glyph glyph-name="Star" unicode="&#59085;" d="M512 128l-174.250667-91.605333a42.666667 42.666667 0 0 0-61.909333 44.970666l33.28 194.048-141.013333 137.386667a42.666667 42.666667 0 0 0 23.68 72.832l194.816 28.288 87.125333 176.554667a42.666667 42.666667 0 0 0 76.544 0l87.125333-176.554667 194.816-28.288a42.666667 42.666667 0 0 0 23.68-72.789333l-141.013333-137.429334 33.28-194.048a42.666667 42.666667 0 0 0-61.866667-44.970666L512 128z"  horiz-adv-x="1024" />

    
    <glyph glyph-name="Thunder" unicode="&#59086;" d="M527.957333 45.269333l249.557334 374.314667A32 32 0 0 1 750.890667 469.333333H554.666667V704.981333a32 32 0 0 1-58.624 17.749334l-249.557334-374.314667A32 32 0 0 1 273.109333 298.666667H469.333333v-235.648a32 32 0 0 1 58.624-17.749334z"  horiz-adv-x="1024" />

    
    <glyph glyph-name="Shield-check" unicode="&#59090;" d="M170.666667 725.333333l325.589333 61.013334a85.333333 85.333333 0 0 0 31.488 0L853.333333 725.333333v-396.074666a363.093333 363.093333 0 0 0-170.666666-307.925334l-148.053334-92.544a42.666667 42.666667 0 0 0-45.226666 0L341.333333 21.333333a363.093333 363.093333 0 0 0-170.666666 307.925334V725.333333zM476.8 266.666667a40.362667 40.362667 0 0 0-28.586667 12.245333l-81.792 81.792a39.509333 39.509333 0 0 0 0 57.258667c16.341333 16.341333 42.922667 16.341333 57.216 0l53.162667-53.162667 134.954667 134.912a39.509333 39.509333 0 0 0 57.216 0 39.509333 39.509333 0 0 0 0-57.216l-163.541334-163.584a40.362667 40.362667 0 0 0-28.629333-12.245333z"  horiz-adv-x="1024" />

    
    <glyph glyph-name="Visible" unicode="&#59091;" d="M128 384s104.746667 256 384 256c209.493333 0 384-256 384-256s-174.506667-256-384-256c-279.253333 0-384 256-384 256zM512 256a128 128 0 1 0 0 256 128 128 0 0 0 0-256z"  horiz-adv-x="1024" />

    
    <glyph glyph-name="Shield-disabled" unicode="&#59092;" d="M170.666667 725.333333l325.589333 61.013334a85.333333 85.333333 0 0 0 31.488 0L853.333333 725.333333v-396.074666a363.093333 363.093333 0 0 0-170.666666-307.925334l-148.053334-92.544a42.666667 42.666667 0 0 0-45.226666 0L341.333333 21.333333a363.093333 363.093333 0 0 0-170.666666 307.925334V725.333333zM451.669333 384l-60.330666 60.330667a42.666667 42.666667 0 1 0 60.330666 60.330666L512 444.330667l60.330667 60.330666a42.666667 42.666667 0 1 0 60.330666-60.330666L572.330667 384l60.330666-60.330667a42.666667 42.666667 0 1 0-60.330666-60.330666L512 323.669333l-60.330667-60.330666a42.666667 42.666667 0 1 0-60.330666 60.330666L451.669333 384z"  horiz-adv-x="1024" />

    
    <glyph glyph-name="error" unicode="&#59178;" d="M572.86644717 384.00882614l274.13052879 274.08639808A43.10349281 43.10349281 0 0 1 786.0789298 719.01327038L511.99117386 444.88342053 237.90477578 719.01327038a43.10349281 43.10349281 0 0 1-60.91804616-60.91804616l274.12984985-274.08639808L176.98672962 109.92107020000003a43.10349281 43.10349281 0 0 1 60.91804616-60.91804616l274.08639808 274.13120772 274.08775594-274.13120772a43.01658924 43.01658924 0 0 1 60.91804616 60.91804616L572.86576824 384.00882614z"  horiz-adv-x="1024" />

    
    <glyph glyph-name="behance" unicode="&#59107;" d="M332.928 651.477333c25.130667 0 47.744-2.176 68.48-6.613333 20.608-4.394667 38.186667-11.648 53.034667-21.674667 14.634667-10.026667 26.069333-23.338667 34.304-40.064 7.978667-16.512 11.946667-37.162667 11.946666-61.568 0-26.453333-5.973333-48.554667-17.962666-66.176-12.074667-17.664-29.866667-32.128-53.589334-43.306666 32.298667-9.344 56.234667-25.685333 72.106667-48.896 15.957333-23.424 23.765333-51.456 23.765333-84.309334 0-26.666667-5.077333-49.578667-15.274666-68.821333a132.693333 132.693333 0 0 0-41.557334-47.530667 184.106667 184.106667 0 0 0-59.690666-27.306666 268.245333 268.245333 0 0 0-68.650667-8.789334H85.333333V651.477333h247.594667z m-14.976-212.138666c20.48 0 37.461333 4.864 50.858667 14.72 13.312 9.728 19.754667 25.770667 19.754666 47.744 0 12.202667-2.176 22.272-6.442666 30.165333a47.530667 47.530667 0 0 1-17.792 18.261333 71.808 71.808 0 0 1-25.472 9.173334 153.984 153.984 0 0 1-29.738667 2.602666H200.96v-122.666666h116.992z m6.442667-223.530667c11.392 0 22.229333 0.981333 32.426666 3.285333 10.282667 2.218667 19.413333 5.802667 27.178667 11.136 7.765333 5.12 14.165333 12.074667 18.773333 20.949334 4.650667 8.789333 6.912 20.266667 6.912 34.048 0 27.050667-7.637333 46.293333-22.741333 57.941333-15.146667 11.52-35.456 17.237333-60.330667 17.237333H200.96v-144.64h123.434667z m365.44 1.749333c15.658667-15.274667 38.229333-22.954667 67.584-22.954666 21.034667 0 39.210667 5.333333 54.528 15.914666 15.104 10.624 24.32 21.973333 27.861333 33.706667h91.946667c-14.762667-45.738667-37.162667-78.421333-67.797334-98.090667-30.250667-19.754667-67.072-29.568-110.08-29.568-29.952 0-56.917333 4.821333-81.066666 14.378667a172.074667 172.074667 0 0 0-61.397334 40.874667 186.453333 186.453333 0 0 0-38.613333 63.36 231.808 231.808 0 0 0-13.653333 81.024c0 28.416 4.736 54.997333 14.037333 79.530666a186.709333 186.709333 0 0 0 39.850667 63.701334c17.28 17.92 37.76 32.042667 61.610666 42.410666a197.717333 197.717333 0 0 0 79.274667 15.445334c32.170667 0 60.288-6.229333 84.437333-18.773334a169.258667 169.258667 0 0 0 59.306667-50.432c15.488-21.034667 26.538667-45.141333 33.408-72.149333 6.869333-26.965333 9.258667-55.125333 7.296-84.608h-274.389333c0.042667-30.037333 10.154667-58.496 25.856-73.770667z m119.978666 199.722667c-12.416 13.738667-33.408 21.162667-59.093333 21.162667-16.682667 0-30.464-2.773333-41.557333-8.490667a84.053333 84.053333 0 0 1-26.453334-20.949333 75.605333 75.605333 0 0 1-13.994666-26.794667 120.32 120.32 0 0 1-4.736-25.045333h169.898666c-2.474667 26.624-11.605333 46.293333-24.064 60.117333z m-167.168 198.954667h212.864v-51.84h-212.864z"  horiz-adv-x="1024" />

    
    <glyph glyph-name="facebook" unicode="&#59109;" d="M571.605333 0.12800000000004275v349.696h117.973334l17.536 136.917333h-135.509334V573.952c0 39.509333 11.008 66.56 67.712 66.56h71.850667V762.581333A953.002667 953.002667 0 0 1 605.909333 768c-104.277333 0-175.872-63.658667-175.872-180.522667v-100.48H312.832v-136.917333h117.461333v-349.952h141.312z"  horiz-adv-x="1024" />

    
    <glyph glyph-name="linkedin" unicode="&#59111;" d="M212.608 682.282667m-93.354667 0a93.354667 93.354667 0 1 1 186.709334 0 93.354667 93.354667 0 1 1-186.709334 0ZM394.112 518.1866669999999v-517.930667h160.810667v256.128c0 67.584 12.714667 133.034667 96.512 133.034667 82.645333 0 83.669333-77.269333 83.669333-137.301334v-251.904H896v284.032c0 139.52-30.037333 246.741333-193.109333 246.741334-78.293333 0-130.773333-42.965333-152.234667-83.626667h-2.176v70.826667H394.112z m-262.058667 0H293.12v-517.930667H132.053333z"  horiz-adv-x="1024" />

    
    <glyph glyph-name="tumblr" unicode="&#59112;" d="M600.661333 2.0053329999999505c-114.858667 0-200.490667 59.093333-200.490666 200.533334v226.474666H295.722667V551.6800000000001c114.944 29.824 163.029333 128.725333 168.533333 214.314667h119.296v-194.474667h139.221333v-142.506667h-139.221333v-197.205333c0-59.136 29.824-79.530667 77.354667-79.530667h67.413333v-150.272h-127.658667z"  horiz-adv-x="1024" />

    
    <glyph glyph-name="twitter" unicode="&#59113;" d="M837.674667 554.794667c0.554667-7.466667 0.554667-14.890667 0.554666-22.314667 0-227.2-172.928-489.002667-488.96-489.002667-97.365333 0-187.818667 28.202667-263.936 77.184 13.824-1.578667 27.136-2.133333 41.514667-2.133333a344.32 344.32 0 0 1 213.376 73.429333 172.202667 172.202667 0 0 0-160.725333 119.168c10.624-1.578667 21.290667-2.645333 32.469333-2.645333 15.402667 0 30.890667 2.133333 45.269333 5.845333a171.818667 171.818667 0 0 0-137.813333 168.661334v2.133333c22.912-12.757333 49.493333-20.736 77.653333-21.802667a171.605333 171.605333 0 0 0-76.629333 143.104c0 31.914667 8.490667 61.184 23.381333 86.698667a488.832 488.832 0 0 1 354.389334-179.84c-2.645333 12.8-4.266667 26.069333-4.266667 39.381333a171.776 171.776 0 0 0 171.861333 171.861334c49.493333 0 94.165333-20.736 125.568-54.272a339.498667 339.498667 0 0 1 109.056 41.514666 171.52 171.52 0 0 0-75.562666-94.72 344.448 344.448 0 0 1 98.944 26.624 368.853333 368.853333 0 0 0-86.144-88.874666z"  horiz-adv-x="1024" />

    
    <glyph glyph-name="instagram-alt" unicode="&#59115;" d="M893.738667 541.653333a278.613333 278.613333 0 0 1-17.877334 94.549334 196.693333 196.693333 0 0 1-112.341333 112.341333 281.856 281.856 0 0 1-93.269333 17.92c-41.045333 1.834667-54.058667 2.346667-158.250667 2.346667s-117.546667 0-158.293333-2.346667a281.856 281.856 0 0 1-93.226667-17.92 196.565333 196.565333 0 0 1-112.341333-112.341333 279.637333 279.637333 0 0 1-17.877334-93.226667c-1.834667-41.088-2.389333-54.101333-2.389333-158.293333s0-117.504 2.389333-158.293334c0.64-31.914667 6.656-63.402667 17.877334-93.312a196.693333 196.693333 0 0 1 112.384-112.298666 280.917333 280.917333 0 0 1 93.226666-19.2c41.088-1.834667 54.101333-2.389333 158.293334-2.389334s117.546667 0 158.293333 2.389334a281.173333 281.173333 0 0 1 93.269333 17.877333 196.906667 196.906667 0 0 1 112.341334 112.341333c11.221333 29.866667 17.237333 61.354667 17.877333 93.312 1.834667 41.045333 2.389333 54.058667 2.389333 158.293334-0.085333 104.192-0.085333 117.418667-2.474666 158.250666z m-381.994667-354.005333c-108.970667 0-197.248 88.277333-197.248 197.248s88.277333 197.248 197.248 197.248a197.248 197.248 0 0 0 0-394.496z m205.098667 355.797333c-25.472 0-45.994667 20.565333-45.994667 45.994667a45.952 45.952 0 1 0 91.946667 0c0-25.429333-20.565333-45.994667-45.952-45.994667zM511.744 384.896m-128.128 0a128.128 128.128 0 1 1 256.256 0 128.128 128.128 0 1 1-256.256 0Z"  horiz-adv-x="1024" />

    
    <glyph glyph-name="arrow-down" unicode="&#59437;" d="M249.08222656 530.3220703100001a26.30917969 26.30917969 0 0 0 37.81054688 6.58125l197.37421875-148.42617187a46.08457031 46.08457031 0 0 1 55.46601562 0l197.35839844 148.42617187a26.29335938 26.29335938 0 0 0 37.81054688-6.58125c9.1125-13.76367188 7.79941406-32.00449219-3.1640625-44.296875L557.98964844 246.44238281000003a61.49355469 61.49355469 0 0 0-91.97929688 0L252.27792969 486.009375a36.45 36.45 0 0 0-3.19570313 44.296875z"  horiz-adv-x="1024" />

    


  </font>
</defs>
</svg>
